<?xml version="1.0" encoding="UTF-8" standalone="no"?>
<!-- Created with Inkscape (http://www.inkscape.org/) -->

<svg
   version="1.1"
   id="svg2"
   width="302.35999"
   height="310.90668"
   viewBox="0 0 302.35999 310.90668"
   sodipodi:docname="LogoGoodPlanet-be-CMYK.eps"
   inkscape:version="1.2.1 (9c6d41e410, 2022-07-14)"
   xmlns:inkscape="http://www.inkscape.org/namespaces/inkscape"
   xmlns:sodipodi="http://sodipodi.sourceforge.net/DTD/sodipodi-0.dtd"
   xmlns="http://www.w3.org/2000/svg"
   xmlns:svg="http://www.w3.org/2000/svg">
  <defs
     id="defs6" />
  <sodipodi:namedview
     id="namedview4"
     pagecolor="#ffffff"
     bordercolor="#666666"
     borderopacity="1.0"
     inkscape:showpageshadow="2"
     inkscape:pageopacity="0.0"
     inkscape:pagecheckerboard="0"
     inkscape:deskcolor="#d1d1d1"
     showgrid="false"
     inkscape:zoom="3.303242"
     inkscape:cx="116.40079"
     inkscape:cy="155.90744"
     inkscape:window-width="3424"
     inkscape:window-height="1857"
     inkscape:window-x="0"
     inkscape:window-y="32"
     inkscape:window-maximized="0"
     inkscape:current-layer="g10">
    <inkscape:page
       x="0"
       y="0"
       id="page8"
       width="302.35999"
       height="310.90668" />
  </sodipodi:namedview>
  <g
     id="g10"
     inkscape:groupmode="layer"
     inkscape:label="Page 1"
     transform="matrix(1.3333333,0,0,-1.3333333,0,310.90667)">
    <g
       id="g12"
       transform="scale(0.1)">
      <path
         d="m 997.141,1981.13 c 25.329,56.48 48.279,118.37 79.709,175.58 69.23,126.01 166.51,195.81 322.04,169.58 202.58,-34.16 366.37,-120.15 468.14,-305.06 52.78,-95.96 78.65,-200.19 92.1,-307.95 18.3,-146.52 37.88,-292.9 53.68,-439.67 12.78,-118.94 22.05,-238.26 30.54,-357.551 6.01,-84.25 11.26,-168.797 11.07,-253.18 -0.2,-86.68 -5.46,-173.539 -13.25,-259.899 -1.72,-19.589 -19.12,-43.378 -36.26,-53.859 -9.49,-5.781 -36.56,8.27 -50.3,19.801 -248.33,208.629 -528.21,359.648 -832.31,470.91 -242.745,88.789 -479.366,193.128 -693.046,341.498 -65.375,45.34 -132.106,92.54 -185.539,150.55 -202.3127,219.63 -169.4377,531.99 69.562,721.16 139.95,110.76 292.809,110.19 448.719,48.03 82.059,-32.73 158.242,-80.16 235.145,-119.94 M 1888.57,663.34 c 0.94,15.308 2.73,24.449 1.88,33.351 -13.45,141.141 -21.76,283.09 -42.23,423.229 -27.92,190.99 -61.85,381.28 -99.7,570.59 -20,100.04 -54.99,196.89 -119.54,279.23 -113.58,144.91 -265.2,136.22 -357.06,-20.17 -3.58,-6.09 -7.85,-11.89 -10.42,-18.4 -35.73,-90.29 -71.49,-180.59 -106.57,-271.16 -7.74,-19.99 -12.84,-41 -20.72,-66.77 -12.13,11.56 -19.79,18.24 -26.72,25.64 -46.51,49.83 -92.93,99.69 -139.256,149.67 -45.617,49.24 -99.664,86.95 -163.972,105.49 -156.594,45.12 -294.942,0.03 -417.246,-97.76 -23.891,-19.08 -36.836,-59.79 -42.121,-92.58 -10.836,-67.13 10.656,-130.2 44.339,-188.23 90.907,-156.72 233.129,-244.05 402.661,-291.89 74.265,-21.01 151.152,-32.9 225.015,-55.12 244.27,-73.51 462.6,-199.241 672.03,-341.69 65.86,-44.829 129.48,-92.891 199.63,-143.43"
         style="fill:#4396d8;fill-opacity:1;fill-rule:nonzero;stroke:none"
         id="path14" />
      <path
         d="m 103.926,29.7305 c 8.433,0 15.777,0.7812 22.027,2.3008 6.242,1.539 12.195,3.6406 17.848,6.3203 v 36.5468 h -25.153 c -2.402,0 -4.296,0.6719 -5.695,2.0118 -1.375,1.3398 -2.078,2.9882 -2.078,4.9296 v 21.1292 h 66.824 V 21.6914 C 172.609,17.9688 167.309,14.75 161.793,12.0313 156.277,9.28906 150.402,7.05078 144.152,5.28125 137.902,3.51953 131.207,2.21094 124.078,1.32031 116.938,0.460938 109.254,0 101.008,0 86.3672,0 72.8906,2.55078 60.582,7.64063 48.2578,12.7383 37.5977,19.832 28.625,28.9102 19.6406,37.9805 12.6172,48.832 7.5625,61.4219 2.51953,74.0195 0,87.7695 0,102.691 c 0,15.09 2.45313,28.938 7.36328,41.539 4.90622,12.59 11.87502,23.418 20.91802,32.508 9.0195,9.082 19.9765,16.121 32.8437,21.121 12.8789,4.993 27.332,7.5 43.352,7.5 16.402,0 30.597,-2.418 42.589,-7.289 11.997,-4.871 22.168,-11.179 30.497,-18.968 l -10.84,-16.954 c -2.133,-3.418 -4.95,-5.136 -8.469,-5.136 -2.219,0 -4.492,0.738 -6.813,2.226 -2.961,1.742 -5.996,3.512 -9.101,5.274 -3.102,1.777 -6.524,3.289 -10.274,4.59 -3.75,1.289 -7.964,2.359 -12.648,3.187 -4.68,0.832 -10.078,1.262 -16.195,1.262 -9.9066,0 -18.8714,-1.672 -26.8753,-5.012 C 68.332,165.211 61.5,160.441 55.8438,154.23 c -5.6446,-6.199 -10,-13.648 -13.0508,-22.371 -3.0625,-8.711 -4.5899,-18.429 -4.5899,-29.168 0,-11.5894 1.6211,-21.8902 4.8633,-30.9019 3.2422,-9.0508 7.7891,-16.668 13.6172,-22.8789 5.8359,-6.1993 12.7852,-10.9493 20.8477,-14.2305 8.0507,-3.3008 16.8554,-4.9492 26.3947,-4.9492"
         style="fill:#4396d8;fill-opacity:1;fill-rule:nonzero;stroke:none"
         id="path16" />
      <path
         d="m 410.57,102.691 c 0,-14.7301 -2.457,-28.3824 -7.367,-40.9215 C 398.297,49.2305 391.391,38.3516 382.5,29.1992 373.613,20.0117 362.91,12.8594 350.414,7.71875 337.906,2.57031 324.055,0 308.859,0 293.668,0 279.801,2.57031 267.246,7.71875 254.691,12.8594 243.945,20.0117 235.012,29.1992 c -8.938,9.1524 -15.856,20.0313 -20.766,32.5703 -4.91,12.5391 -7.359,26.1914 -7.359,40.9215 0,14.719 2.449,28.36 7.359,40.911 4.91,12.558 11.828,23.41 20.766,32.589 8.933,9.161 19.679,16.321 32.234,21.469 12.555,5.141 26.422,7.699 41.613,7.699 15.196,0 29.047,-2.589 41.555,-7.757 12.496,-5.211 23.199,-12.364 32.086,-21.481 8.891,-9.133 15.797,-19.961 20.703,-32.519 4.91,-12.551 7.367,-26.192 7.367,-40.911 m -38.359,0 c 0,11.028 -1.453,20.911 -4.367,29.649 -2.918,8.762 -7.11,16.199 -12.574,22.308 -5.469,6.114 -12.118,10.793 -19.938,14.043 -7.828,3.231 -16.656,4.86 -26.473,4.86 -9.816,0 -18.664,-1.629 -26.535,-4.86 -7.879,-3.25 -14.558,-7.929 -20.074,-14.043 -5.516,-6.109 -9.75,-13.546 -12.719,-22.308 -2.965,-8.738 -4.441,-18.621 -4.441,-29.649 0,-11.0191 1.476,-20.9097 4.441,-29.6715 2.969,-8.75 7.203,-16.1679 12.719,-22.2187 5.516,-6.082 12.195,-10.7188 20.074,-13.9805 7.871,-3.2383 16.719,-4.8594 26.535,-4.8594 9.817,0 18.645,1.6211 26.473,4.8594 7.82,3.2617 14.469,7.8985 19.938,13.9805 5.464,6.0508 9.656,13.4687 12.574,22.2187 2.914,8.7618 4.367,18.6524 4.367,29.6715"
         style="fill:#4396d8;fill-opacity:1;fill-rule:nonzero;stroke:none"
         id="path18" />
      <path
         d="m 638.293,102.691 c 0,-14.7301 -2.465,-28.3824 -7.371,-40.9215 C 626.016,49.2305 619.113,38.3516 610.227,29.1992 601.34,20.0117 590.629,12.8594 578.137,7.71875 565.625,2.57031 551.777,0 536.582,0 521.398,0 507.527,2.57031 494.977,7.71875 482.422,12.8594 471.676,20.0117 462.738,29.1992 c -8.937,9.1524 -15.859,20.0313 -20.769,32.5703 -4.906,12.5391 -7.356,26.1914 -7.356,40.9215 0,14.719 2.45,28.36 7.356,40.911 4.91,12.558 11.832,23.41 20.769,32.589 8.938,9.161 19.684,16.321 32.239,21.469 12.55,5.141 26.421,7.699 41.605,7.699 15.195,0 29.043,-2.589 41.555,-7.757 12.492,-5.211 23.203,-12.364 32.09,-21.481 8.886,-9.133 15.789,-19.961 20.695,-32.519 4.906,-12.551 7.371,-26.192 7.371,-40.911 m -38.355,0 c 0,11.028 -1.461,20.911 -4.379,29.649 -2.911,8.762 -7.106,16.199 -12.567,22.308 -5.472,6.114 -12.117,10.793 -19.941,14.043 -7.824,3.231 -16.649,4.86 -26.469,4.86 -9.82,0 -18.66,-1.629 -26.531,-4.86 -7.879,-3.25 -14.563,-7.929 -20.071,-14.043 -5.515,-6.109 -9.75,-13.546 -12.722,-22.308 -2.961,-8.738 -4.442,-18.621 -4.442,-29.649 0,-11.0191 1.481,-20.9097 4.442,-29.6715 2.972,-8.75 7.207,-16.1679 12.722,-22.2187 5.508,-6.082 12.192,-10.7188 20.071,-13.9805 7.871,-3.2383 16.711,-4.8594 26.531,-4.8594 9.82,0 18.645,1.6211 26.469,4.8594 7.824,3.2617 14.469,7.8985 19.941,13.9805 5.461,6.0508 9.656,13.4687 12.567,22.2187 2.918,8.7618 4.379,18.6524 4.379,29.6715"
         style="fill:#4396d8;fill-opacity:1;fill-rule:nonzero;stroke:none"
         id="path20" />
      <path
         d="m 851.703,102.691 c 0,-14.7301 -2.457,-28.2613 -7.363,-40.5816 C 839.43,49.7813 832.527,39.1914 823.637,30.3008 814.75,21.3984 804.047,14.5 791.547,9.60156 779.043,4.69141 765.191,2.21875 750,2.21875 H 673.305 V 203.141 H 750 c 15.191,0 29.043,-2.481 41.547,-7.43 12.5,-4.973 23.203,-11.852 32.09,-20.699 8.89,-8.852 15.793,-19.453 20.703,-31.762 4.906,-12.301 7.363,-25.84 7.363,-40.559 m -38.211,0 c 0,11.028 -1.476,20.911 -4.433,29.649 -2.973,8.762 -7.188,16.16 -12.653,22.242 -5.472,6.059 -12.113,10.727 -19.941,13.957 -7.82,3.25 -16.649,4.871 -26.465,4.871 H 710.957 V 31.9609 H 750 c 9.816,0 18.645,1.6211 26.465,4.8594 7.828,3.2617 14.469,7.8985 19.941,13.9805 5.465,6.0508 9.68,13.4687 12.653,22.2187 2.957,8.7618 4.433,18.6524 4.433,29.6715"
         style="fill:#4396d8;fill-opacity:1;fill-rule:nonzero;stroke:none"
         id="path22" />
      <path
         d="M 925.211,72.9609 V 2.21875 H 887.828 V 203.141 h 65.438 c 13.433,0 25.054,-1.571 34.875,-4.731 9.82,-3.148 17.919,-7.539 24.329,-13.191 6.38,-5.66 11.11,-12.418 14.16,-20.289 3.06,-7.879 4.59,-16.481 4.59,-25.828 0,-9.731 -1.62,-18.653 -4.87,-26.762 -3.24,-8.11 -8.1,-15.0705 -14.58,-20.9103 -6.49,-5.8281 -14.586,-10.3789 -24.325,-13.6094 -9.715,-3.2383 -21.105,-4.8594 -34.179,-4.8594 z m 0,29.1681 h 28.055 c 6.855,0 12.832,0.851 17.925,2.57 5.094,1.711 9.317,4.172 12.649,7.371 3.332,3.18 5.832,7.078 7.5,11.66 1.664,4.602 2.504,9.711 2.504,15.372 0,5.359 -0.84,10.218 -2.504,14.578 -1.668,4.351 -4.168,8.05 -7.5,11.101 -3.332,3.071 -7.555,5.399 -12.649,7.028 -5.093,1.621 -11.07,2.429 -17.925,2.429 h -28.055 v -72.109"
         style="fill:#4396d8;fill-opacity:1;fill-rule:nonzero;stroke:none"
         id="path24" />
      <path
         d="M 1065.53,203.141 V 2.23047 h 117.82 V 33.082 h -80.43 v 170.059 h -37.39"
         style="fill:#4396d8;fill-opacity:1;fill-rule:nonzero;stroke:none"
         id="path26" />
      <path
         d="m 1391.35,2.23047 h -28.9 c -3.26,0 -5.9,0.80859 -7.99,2.42969 -2.08,1.6289 -3.6,3.64062 -4.52,6.03904 l -15,41 h -83.22 l -15.01,-41 c -0.75,-2.12889 -2.2,-4.05857 -4.38,-5.82811 -2.17,-1.76171 -4.84,-2.64062 -7.98,-2.64062 h -29.04 l 78.91,200.91053 h 38.21 z M 1261.3,78.0898 h 64.06 L 1300.9,144.93 c -1.11,2.961 -2.34,6.449 -3.69,10.48 -1.34,4.039 -2.65,8.422 -3.96,13.129 -1.3,-4.707 -2.56,-9.129 -3.81,-13.187 -1.25,-4.09 -2.48,-7.653 -3.68,-10.704 L 1261.3,78.0898"
         style="fill:#4396d8;fill-opacity:1;fill-rule:nonzero;stroke:none"
         id="path28" />
      <path
         d="m 1441.08,202.93 c 1.11,-0.129 2.11,-0.41 2.99,-0.84 0.88,-0.41 1.74,-1.008 2.58,-1.809 0.83,-0.769 1.75,-1.82 2.77,-3.109 L 1554.88,62.8203 c -0.37,3.2305 -0.63,6.4102 -0.77,9.5 -0.13,3.1211 -0.21,6.0117 -0.21,8.6914 V 203.141 h 32.92 V 2.23047 h -19.3 c -2.96,0 -5.43,0.46094 -7.36,1.39062 -1.95,0.91797 -3.85,2.58985 -5.71,5 L 1449.42,142.422 c 0.28,-2.961 0.48,-5.91 0.62,-8.82 0.14,-2.922 0.22,-5.582 0.22,-7.993 V 2.23047 h -32.93 V 203.141 h 19.58 c 1.67,0 3.07,-0.082 4.17,-0.211"
         style="fill:#4396d8;fill-opacity:1;fill-rule:nonzero;stroke:none"
         id="path30" />
      <path
         d="M 1632.95,203.141 V 2.23047 h 126.73 V 32.1094 h -89.07 v 56.8203 h 70.17 v 28.7613 h -70.17 v 55.719 h 89.07 v 29.731 h -126.73"
         style="fill:#4396d8;fill-opacity:1;fill-rule:nonzero;stroke:none"
         id="path32" />
      <path
         d="m 1780.39,203.141 v -30.7 h 60.71 V 2.23047 h 37.37 V 172.441 h 60.44 v 30.7 h -158.52"
         style="fill:#4396d8;fill-opacity:1;fill-rule:nonzero;stroke:none"
         id="path34" />
      <path
         d="m 2267.72,112.809 c 0,-6.098 -1.25,-11.739 -3.75,-16.8676 -2.51,-5.1601 -7.09,-9.793 -13.75,-13.9101 -6.69,-4.1016 -15.85,-7.6993 -27.51,-10.75 -11.67,-3.0704 -26.68,-5.5196 -45.01,-7.3711 -0.1,-1.0196 -0.15,-2.0196 -0.15,-2.9883 v -2.9805 c 0,-12.4219 2.72,-21.8828 8.14,-28.4101 5.4,-6.5313 13.59,-9.8008 24.51,-9.8008 4.45,0 8.41,0.4687 11.88,1.3984 3.46,0.9297 6.58,2.043 9.31,3.4024 2.73,1.3398 5.15,2.8203 7.23,4.4375 2.07,1.6132 3.99,3.1015 5.75,4.4414 1.77,1.3515 3.39,2.4804 4.87,3.4101 1.49,0.918 2.97,1.3906 4.43,1.3906 1.69,0 3.21,-0.789 4.6,-2.3593 l 6.12,-7.6328 c -4.73,-4.918 -9.35,-9.1094 -13.83,-12.5899 -4.5,-3.457 -9.09,-6.34765 -13.83,-8.66796 -4.71,-2.33203 -9.64,-4.01172 -14.78,-5.08203 -5.16,-1.046879 -10.69,-1.589847 -16.59,-1.589847 -8.09,0 -15.3,1.339847 -21.69,4.031247 -6.39,2.67969 -11.81,6.48829 -16.26,11.44139 -4.45,4.9571 -7.86,10.9766 -10.29,18.0078 -2.4,7.0313 -3.59,14.9102 -3.59,23.6016 0,7.2305 0.76,14.418 2.28,21.6094 1.54,7.1679 3.76,14.0078 6.68,20.4883 2.92,6.4922 6.48,12.5112 10.69,18.0702 4.21,5.551 9.03,10.352 14.44,14.371 5.42,4.031 11.39,7.199 17.93,9.52 6.53,2.308 13.54,3.468 21.05,3.468 7.14,0 13.28,-1.027 18.46,-3.058 5.2,-2.039 9.46,-4.629 12.8,-7.77 3.33,-3.16 5.81,-6.629 7.42,-10.429 1.62,-3.801 2.44,-7.411 2.44,-10.832 m -42.51,14.312 c -5.85,0 -11.21,-1.211 -16.11,-3.633 -4.93,-2.386 -9.27,-5.707 -13.07,-9.918 -3.8,-4.211 -7.03,-9.16 -9.72,-14.8512 -2.68,-5.6993 -4.78,-11.8477 -6.26,-18.4297 14.28,1.7695 25.7,3.7812 34.32,6.0703 8.6,2.25 15.24,4.7109 19.87,7.3515 4.62,2.6407 7.68,5.4883 9.16,8.5391 1.49,3.051 2.23,6.238 2.23,9.582 0,1.668 -0.38,3.398 -1.1,5.219 -0.77,1.808 -1.94,3.449 -3.56,4.929 -1.62,1.481 -3.72,2.711 -6.32,3.668 -2.59,0.981 -5.74,1.473 -9.44,1.473"
         style="fill:#4396d8;fill-opacity:1;fill-rule:nonzero;stroke:none"
         id="path36" />
      <path
         d="m 2005.16,2.23047 24.73,204.62153 h 24.31 l -12.22,-99.461 c 3.51,5.648 7.31,10.808 11.39,15.488 4.07,4.691 8.33,8.633 12.78,11.883 4.45,3.238 9.07,5.769 13.88,7.57 4.83,1.797 9.74,2.707 14.73,2.707 11.95,0 21.26,-4.348 27.93,-13.07 6.65,-8.699 10,-21.43 10,-38.1995 0,-7.5781 -0.79,-15.1797 -2.37,-22.789 -1.57,-7.5703 -3.81,-14.8321 -6.72,-21.7188 -2.93,-6.9101 -6.45,-13.3398 -10.57,-19.3203 -4.12,-5.9726 -8.7,-11.1523 -13.75,-15.5508 -5.06,-4.41013 -10.53,-7.85935 -16.46,-10.35935 -5.93,-2.49219 -12.13,-3.75 -18.63,-3.75 -7.49,0 -14.27,1.57813 -20.35,4.73047 -6.05,3.13672 -11.03,7.62888 -14.93,13.45708 l -1.81,-9.01958 c -0.74,-2.41016 -1.68,-4.21875 -2.84,-5.41797 -1.15,-1.21094 -3.12,-1.80078 -5.91,-1.80078 z m 80.29,122.94153 c -4.44,0 -8.93,-1.383 -13.46,-4.172 -4.54,-2.762 -8.92,-6.621 -13.13,-11.531 -4.23,-4.899 -8.18,-10.7385 -11.89,-17.5081 -3.7,-6.75 -6.9,-14.1601 -9.58,-22.2304 l -4.45,-36.5196 c 3.53,-4.9921 7.74,-8.5507 12.64,-10.6289 4.91,-2.082 9.92,-3.1328 15,-3.1328 4.83,0 9.37,1.0391 13.62,3.0625 4.26,2.0391 8.15,4.7969 11.67,8.2774 3.53,3.4726 6.67,7.5312 9.46,12.2226 2.77,4.6602 5.11,9.6602 7.01,15 1.89,5.3203 3.36,10.8281 4.37,16.5274 1.02,5.6797 1.54,11.332 1.54,16.8711 0,11.0308 -2,19.3988 -5.98,25.1488 -3.98,5.742 -9.59,8.613 -16.82,8.613"
         style="fill:#4396d8;fill-opacity:1;fill-rule:nonzero;stroke:none"
         id="path38" />
      <path
         d="m 1925.63,17.5195 c 0,2.4024 0.43,4.6719 1.32,6.7891 0.88,2.1328 2.1,3.9922 3.68,5.5703 1.57,1.5625 3.4,2.8203 5.48,3.7422 2.09,0.9297 4.39,1.3984 6.88,1.3984 2.42,0 4.65,-0.4687 6.74,-1.3984 2.09,-0.9219 3.92,-2.1797 5.49,-3.7422 1.56,-1.5781 2.82,-3.4375 3.76,-5.5703 0.91,-2.1172 1.37,-4.3867 1.37,-6.7891 0,-2.5078 -0.46,-4.8007 -1.37,-6.8906 -0.94,-2.07812 -2.2,-3.91015 -3.76,-5.48046 -1.57,-1.57813 -3.4,-2.8086 -5.49,-3.6875 -2.09,-0.878909 -4.32,-1.320315 -6.74,-1.320315 -2.49,0 -4.79,0.441406 -6.88,1.320315 -2.08,0.8789 -3.91,2.10937 -5.48,3.6875 -1.58,1.57031 -2.8,3.40234 -3.68,5.48046 -0.89,2.0899 -1.32,4.3828 -1.32,6.8906"
         style="fill:#4396d8;fill-opacity:1;fill-rule:nonzero;stroke:none"
         id="path40" />
    </g>
  </g>
</svg>
